<svg width="394" height="27" viewBox="0 0 394 27" fill="none" xmlns="http://www.w3.org/2000/svg">
<path d="M163.56 20L160.932 15.23H160.194V20H157.116V7.364H162.282C163.278 7.364 164.124 7.538 164.82 7.886C165.528 8.234 166.056 8.714 166.404 9.326C166.752 9.926 166.926 10.598 166.926 11.342C166.926 12.182 166.686 12.932 166.206 13.592C165.738 14.252 165.042 14.72 164.118 14.996L167.034 20H163.56ZM160.194 13.052H162.102C162.666 13.052 163.086 12.914 163.362 12.638C163.65 12.362 163.794 11.972 163.794 11.468C163.794 10.988 163.65 10.61 163.362 10.334C163.086 10.058 162.666 9.92 162.102 9.92H160.194V13.052ZM172.296 9.83V12.386H176.418V14.762H172.296V17.534H176.958V20H169.218V7.364H176.958V9.83H172.296ZM191.178 7.364L186.696 20H182.844L178.362 7.364H181.638L184.77 16.904L187.92 7.364H191.178ZM195.903 7.364V20H192.825V7.364H195.903ZM201.571 9.83V12.386H205.693V14.762H201.571V17.534H206.233V20H198.493V7.364H206.233V9.83H201.571ZM225.98 7.364L222.686 20H218.96L216.944 11.684L214.856 20H211.13L207.926 7.364H211.22L213.038 16.562L215.288 7.364H218.672L220.832 16.562L222.668 7.364H225.98ZM232.455 20.126C231.531 20.126 230.703 19.976 229.971 19.676C229.239 19.376 228.651 18.932 228.207 18.344C227.775 17.756 227.547 17.048 227.523 16.22H230.799C230.847 16.688 231.009 17.048 231.285 17.3C231.561 17.54 231.921 17.66 232.365 17.66C232.821 17.66 233.181 17.558 233.445 17.354C233.709 17.138 233.841 16.844 233.841 16.472C233.841 16.16 233.733 15.902 233.517 15.698C233.313 15.494 233.055 15.326 232.743 15.194C232.443 15.062 232.011 14.912 231.447 14.744C230.631 14.492 229.965 14.24 229.449 13.988C228.933 13.736 228.489 13.364 228.117 12.872C227.745 12.38 227.559 11.738 227.559 10.946C227.559 9.77 227.985 8.852 228.837 8.192C229.689 7.52 230.799 7.184 232.167 7.184C233.559 7.184 234.681 7.52 235.533 8.192C236.385 8.852 236.841 9.776 236.901 10.964H233.571C233.547 10.556 233.397 10.238 233.121 10.01C232.845 9.77 232.491 9.65 232.059 9.65C231.687 9.65 231.387 9.752 231.159 9.956C230.931 10.148 230.817 10.43 230.817 10.802C230.817 11.21 231.009 11.528 231.393 11.756C231.777 11.984 232.377 12.23 233.193 12.494C234.009 12.77 234.669 13.034 235.173 13.286C235.689 13.538 236.133 13.904 236.505 14.384C236.877 14.864 237.063 15.482 237.063 16.238C237.063 16.958 236.877 17.612 236.505 18.2C236.145 18.788 235.617 19.256 234.921 19.604C234.225 19.952 233.403 20.126 232.455 20.126Z" fill="url(#paint0_linear)"/>
<defs>
<linearGradient id="paint0_linear" x1="156" y1="-4.05" x2="165.269" y2="38.5442" gradientUnits="userSpaceOnUse">
<stop stop-color="#39B54A"/>
<stop offset="1" stop-color="#2B3990"/>
</linearGradient>
</defs>
</svg>
