<svg width="101" height="17" viewBox="0 0 101 17" fill="none" xmlns="http://www.w3.org/2000/svg">
<path d="M4.11212 15.943C3.72612 16.141 3.28812 15.794 3.36612 15.351L4.19612 10.621L0.673118 7.26501C0.344118 6.95101 0.515118 6.37701 0.956118 6.31501L5.85412 5.61901L8.03812 1.29201C8.23512 0.902012 8.76812 0.902012 8.96512 1.29201L11.1491 5.61901L16.0471 6.31501C16.4881 6.37701 16.6591 6.95101 16.3291 7.26501L12.8071 10.621L13.6371 15.351C13.7151 15.794 13.2771 16.141 12.8911 15.943L8.50012 13.687L4.11112 15.943H4.11212Z" fill="#3F3F46"/>
<path d="M25.1121 15.943C24.7261 16.141 24.2881 15.794 24.3661 15.351L25.1961 10.621L21.6731 7.26501C21.3441 6.95101 21.5151 6.37701 21.9561 6.31501L26.8541 5.61901L29.0381 1.29201C29.2351 0.902012 29.7681 0.902012 29.9651 1.29201L32.1491 5.61901L37.0471 6.31501C37.4881 6.37701 37.6591 6.95101 37.3291 7.26501L33.8071 10.621L34.6371 15.351C34.7151 15.794 34.2771 16.141 33.8911 15.943L29.5001 13.687L25.1111 15.943H25.1121Z" fill="#3F3F46"/>
<path d="M46.1121 15.943C45.7261 16.141 45.2881 15.794 45.3661 15.351L46.1961 10.621L42.6731 7.26501C42.3441 6.95101 42.5151 6.37701 42.9561 6.31501L47.8541 5.61901L50.0381 1.29201C50.2351 0.902012 50.7681 0.902012 50.9651 1.29201L53.1491 5.61901L58.0471 6.31501C58.4881 6.37701 58.6591 6.95101 58.3291 7.26501L54.8071 10.621L55.6371 15.351C55.7151 15.794 55.2771 16.141 54.8911 15.943L50.5001 13.687L46.1111 15.943H46.1121Z" fill="#3F3F46"/>
<path d="M67.1121 15.943C66.7261 16.141 66.2881 15.794 66.3661 15.351L67.1961 10.621L63.6731 7.26501C63.3441 6.95101 63.5151 6.37701 63.9561 6.31501L68.8541 5.61901L71.0381 1.29201C71.2351 0.902012 71.7681 0.902012 71.9651 1.29201L74.1491 5.61901L79.0471 6.31501C79.4881 6.37701 79.6591 6.95101 79.3291 7.26501L75.8071 10.621L76.6371 15.351C76.7151 15.794 76.2771 16.141 75.8911 15.943L71.5001 13.687L67.1111 15.943H67.1121Z" fill="#3F3F46"/>
<path d="M89.854 5.619L92.038 1.292C92.0799 1.20495 92.1455 1.13143 92.2272 1.07981C92.3088 1.02819 92.4034 1.00053 92.5 1C92.683 1 92.866 1.097 92.965 1.292L95.149 5.619L100.047 6.315C100.169 6.33419 100.281 6.39491 100.363 6.48691C100.446 6.57891 100.494 6.69655 100.5 6.82C100.507 6.90219 100.495 6.98489 100.466 7.06194C100.436 7.13899 100.39 7.2084 100.33 7.265L96.807 10.621L97.637 15.351C97.715 15.794 97.277 16.141 96.891 15.943L92.5 13.687L88.111 15.943C88.0651 15.9668 88.0159 15.9837 87.965 15.993C87.623 16.053 87.297 15.739 87.365 15.351L88.195 10.621L84.673 7.265C84.6182 7.2132 84.5747 7.15069 84.5451 7.08137C84.5155 7.01204 84.5005 6.93737 84.501 6.862C84.501 6.75544 84.5304 6.65095 84.586 6.56C84.6254 6.49407 84.6791 6.43783 84.7431 6.39542C84.8072 6.35302 84.8799 6.32553 84.956 6.315L89.854 5.619V5.619ZM92.5 12.527C92.5807 12.5267 92.6603 12.5459 92.732 12.583L96.418 14.477L95.724 10.52C95.7076 10.429 95.7138 10.3354 95.7421 10.2473C95.7703 10.1593 95.8197 10.0795 95.886 10.015L98.793 7.245L94.741 6.669C94.6571 6.65633 94.5775 6.62351 94.5091 6.57335C94.4406 6.52319 94.3853 6.45719 94.348 6.381L92.501 2.723L92.5 2.726V12.526V12.527Z" fill="#3F3F46"/>
</svg>
