<svg width="136" height="27" viewBox="0 0 136 27" fill="none" xmlns="http://www.w3.org/2000/svg">
<path d="M7.092 20.126C5.904 20.126 4.812 19.85 3.816 19.298C2.832 18.746 2.046 17.978 1.458 16.994C0.882 15.998 0.594 14.882 0.594 13.646C0.594 12.41 0.882 11.3 1.458 10.316C2.046 9.332 2.832 8.564 3.816 8.012C4.812 7.46 5.904 7.184 7.092 7.184C8.28 7.184 9.366 7.46 10.35 8.012C11.346 8.564 12.126 9.332 12.69 10.316C13.266 11.3 13.554 12.41 13.554 13.646C13.554 14.882 13.266 15.998 12.69 16.994C12.114 17.978 11.334 18.746 10.35 19.298C9.366 19.85 8.28 20.126 7.092 20.126ZM7.092 17.318C8.1 17.318 8.904 16.982 9.504 16.31C10.116 15.638 10.422 14.75 10.422 13.646C10.422 12.53 10.116 11.642 9.504 10.982C8.904 10.31 8.1 9.974 7.092 9.974C6.072 9.974 5.256 10.304 4.644 10.964C4.044 11.624 3.744 12.518 3.744 13.646C3.744 14.762 4.044 15.656 4.644 16.328C5.256 16.988 6.072 17.318 7.092 17.318ZM18.6504 7.364V14.924C18.6504 15.68 18.8364 16.262 19.2084 16.67C19.5804 17.078 20.1264 17.282 20.8464 17.282C21.5664 17.282 22.1184 17.078 22.5024 16.67C22.8864 16.262 23.0784 15.68 23.0784 14.924V7.364H26.1564V14.906C26.1564 16.034 25.9164 16.988 25.4364 17.768C24.9564 18.548 24.3084 19.136 23.4924 19.532C22.6884 19.928 21.7884 20.126 20.7924 20.126C19.7964 20.126 18.9024 19.934 18.1104 19.55C17.3304 19.154 16.7124 18.566 16.2564 17.786C15.8004 16.994 15.5724 16.034 15.5724 14.906V7.364H18.6504ZM35.1218 20L32.4938 15.23H31.7558V20H28.6778V7.364H33.8438C34.8398 7.364 35.6858 7.538 36.3818 7.886C37.0898 8.234 37.6178 8.714 37.9658 9.326C38.3138 9.926 38.4878 10.598 38.4878 11.342C38.4878 12.182 38.2478 12.932 37.7678 13.592C37.2998 14.252 36.6038 14.72 35.6798 14.996L38.5958 20H35.1218ZM31.7558 13.052H33.6638C34.2278 13.052 34.6478 12.914 34.9238 12.638C35.2118 12.362 35.3558 11.972 35.3558 11.468C35.3558 10.988 35.2118 10.61 34.9238 10.334C34.6478 10.058 34.2278 9.92 33.6638 9.92H31.7558V13.052ZM53.1804 7.364V9.83H48.0324V12.494H51.8844V14.888H48.0324V20H44.9544V7.364H53.1804ZM58.2362 9.83V12.386H62.3582V14.762H58.2362V17.534H62.8982V20H55.1582V7.364H62.8982V9.83H58.2362ZM73.1225 17.768H68.4065L67.6505 20H64.4285L69.0005 7.364H72.5645L77.1365 20H73.8785L73.1225 17.768ZM72.3305 15.392L70.7645 10.766L69.2165 15.392H72.3305ZM87.978 7.364V9.83H84.6299V20H81.5519V9.83H78.2039V7.364H87.978ZM92.9067 7.364V14.924C92.9067 15.68 93.0927 16.262 93.4647 16.67C93.8367 17.078 94.3827 17.282 95.1027 17.282C95.8227 17.282 96.3747 17.078 96.7587 16.67C97.1427 16.262 97.3347 15.68 97.3347 14.924V7.364H100.413V14.906C100.413 16.034 100.173 16.988 99.6927 17.768C99.2127 18.548 98.5647 19.136 97.7487 19.532C96.9447 19.928 96.0447 20.126 95.0487 20.126C94.0527 20.126 93.1587 19.934 92.3667 19.55C91.5867 19.154 90.9687 18.566 90.5127 17.786C90.0567 16.994 89.8287 16.034 89.8287 14.906V7.364H92.9067ZM109.378 20L106.75 15.23H106.012V20H102.934V7.364H108.1C109.096 7.364 109.942 7.538 110.638 7.886C111.346 8.234 111.874 8.714 112.222 9.326C112.57 9.926 112.744 10.598 112.744 11.342C112.744 12.182 112.504 12.932 112.024 13.592C111.556 14.252 110.86 14.72 109.936 14.996L112.852 20H109.378ZM106.012 13.052H107.92C108.484 13.052 108.904 12.914 109.18 12.638C109.468 12.362 109.612 11.972 109.612 11.468C109.612 10.988 109.468 10.61 109.18 10.334C108.904 10.058 108.484 9.92 107.92 9.92H106.012V13.052ZM118.114 9.83V12.386H122.236V14.762H118.114V17.534H122.776V20H115.036V7.364H122.776V9.83H118.114ZM129.707 20.126C128.783 20.126 127.955 19.976 127.223 19.676C126.491 19.376 125.903 18.932 125.459 18.344C125.027 17.756 124.799 17.048 124.775 16.22H128.051C128.099 16.688 128.261 17.048 128.537 17.3C128.813 17.54 129.173 17.66 129.617 17.66C130.073 17.66 130.433 17.558 130.697 17.354C130.961 17.138 131.093 16.844 131.093 16.472C131.093 16.16 130.985 15.902 130.769 15.698C130.565 15.494 130.307 15.326 129.995 15.194C129.695 15.062 129.263 14.912 128.699 14.744C127.883 14.492 127.217 14.24 126.701 13.988C126.185 13.736 125.741 13.364 125.369 12.872C124.997 12.38 124.811 11.738 124.811 10.946C124.811 9.77 125.237 8.852 126.089 8.192C126.941 7.52 128.051 7.184 129.419 7.184C130.811 7.184 131.933 7.52 132.785 8.192C133.637 8.852 134.093 9.776 134.153 10.964H130.823C130.799 10.556 130.649 10.238 130.373 10.01C130.097 9.77 129.743 9.65 129.311 9.65C128.939 9.65 128.639 9.752 128.411 9.956C128.183 10.148 128.069 10.43 128.069 10.802C128.069 11.21 128.261 11.528 128.645 11.756C129.029 11.984 129.629 12.23 130.445 12.494C131.261 12.77 131.921 13.034 132.425 13.286C132.941 13.538 133.385 13.904 133.757 14.384C134.129 14.864 134.315 15.482 134.315 16.238C134.315 16.958 134.129 17.612 133.757 18.2C133.397 18.788 132.869 19.256 132.173 19.604C131.477 19.952 130.655 20.126 129.707 20.126Z" fill="url(#paint0_linear)"/>
<defs>
<linearGradient id="paint0_linear" x1="6.20127e-07" y1="-4.05" x2="5.75401" y2="39.8061" gradientUnits="userSpaceOnUse">
<stop stop-color="#39B54A"/>
<stop offset="1" stop-color="#2B3990"/>
</linearGradient>
</defs>
</svg>
