<svg width="101" height="16" viewBox="0 0 101 16" fill="none" xmlns="http://www.w3.org/2000/svg">
<path d="M4.11212 15.443C3.72612 15.641 3.28812 15.294 3.36612 14.851L4.19612 10.121L0.673118 6.76501C0.344118 6.45101 0.515118 5.87701 0.956118 5.81501L5.85412 5.11901L8.03812 0.792012C8.23512 0.402012 8.76812 0.402012 8.96512 0.792012L11.1491 5.11901L16.0471 5.81501C16.4881 5.87701 16.6591 6.45101 16.3291 6.76501L12.8071 10.121L13.6371 14.851C13.7151 15.294 13.2771 15.641 12.8911 15.443L8.50012 13.187L4.11112 15.443H4.11212Z" fill="#FFEB3B"/>
<path d="M25.1121 15.443C24.7261 15.641 24.2881 15.294 24.3661 14.851L25.1961 10.121L21.6731 6.76501C21.3441 6.45101 21.5151 5.87701 21.9561 5.81501L26.8541 5.11901L29.0381 0.792012C29.2351 0.402012 29.7681 0.402012 29.9651 0.792012L32.1491 5.11901L37.0471 5.81501C37.4881 5.87701 37.6591 6.45101 37.3291 6.76501L33.8071 10.121L34.6371 14.851C34.7151 15.294 34.2771 15.641 33.8911 15.443L29.5001 13.187L25.1111 15.443H25.1121Z" fill="#FFEB3B"/>
<path d="M46.1121 15.443C45.7261 15.641 45.2881 15.294 45.3661 14.851L46.1961 10.121L42.6731 6.76501C42.3441 6.45101 42.5151 5.87701 42.9561 5.81501L47.8541 5.11901L50.0381 0.792012C50.2351 0.402012 50.7681 0.402012 50.9651 0.792012L53.1491 5.11901L58.0471 5.81501C58.4881 5.87701 58.6591 6.45101 58.3291 6.76501L54.8071 10.121L55.6371 14.851C55.7151 15.294 55.2771 15.641 54.8911 15.443L50.5001 13.187L46.1111 15.443H46.1121Z" fill="#FFEB3B"/>
<path d="M67.1121 15.443C66.7261 15.641 66.2881 15.294 66.3661 14.851L67.1961 10.121L63.6731 6.76501C63.3441 6.45101 63.5151 5.87701 63.9561 5.81501L68.8541 5.11901L71.0381 0.792012C71.2351 0.402012 71.7681 0.402012 71.9651 0.792012L74.1491 5.11901L79.0471 5.81501C79.4881 5.87701 79.6591 6.45101 79.3291 6.76501L75.8071 10.121L76.6371 14.851C76.7151 15.294 76.2771 15.641 75.8911 15.443L71.5001 13.187L67.1111 15.443H67.1121Z" fill="#FFEB3B"/>
<path d="M88.1121 15.443C87.7261 15.641 87.2881 15.294 87.3661 14.851L88.1961 10.121L84.6731 6.76501C84.3441 6.45101 84.5151 5.87701 84.9561 5.81501L89.8541 5.11901L92.0381 0.792012C92.2351 0.402012 92.7681 0.402012 92.9651 0.792012L95.1491 5.11901L100.047 5.81501C100.488 5.87701 100.659 6.45101 100.329 6.76501L96.8071 10.121L97.6371 14.851C97.7151 15.294 97.2771 15.641 96.8911 15.443L92.5001 13.187L88.1111 15.443H88.1121Z" fill="#FFEB3B"/>
</svg>
